<?xml version="1.0" encoding="UTF-8" standalone="no"?>
<svg width="600" height="600" viewBox="0 0 600 600" version="1.1" xmlns="http://www.w3.org/2000/svg" xmlns:svg="http://www.w3.org/2000/svg">
<g transform="matrix(1.760109,0,0,1.760109,-99.985891,-201.88518)">
<path id="shorthand" style="fill:#000000;stroke:#000000;stroke-width:3.43309;stroke-linecap:round;stroke-linejoin:round" d="m 264.71968,169.29226 c 39.17478,7.04598 54.81188,8.03715 115.06839,-10.19635 -40.6896,16.25121 -70.67242,39.94304 -93.94761,77.57356 16.85244,-33.21984 28.32075,-47.19819 32.95773,-112.94889 -1.00598,59.64816 21.92736,80.62924 24.16351,120.9624 -17.20068,-55.59698 -23.36762,-61.74589 -78.24202,-75.39072 z" />
<path id="star" style="fill:#000000;stroke:#000000;stroke-width:10;stroke-linecap:round;stroke-linejoin:round" d="m 101,217 c 83.85055,-53.03898 86.96176,-19.26558 -23,178 36.03824,23.26558 69.88382,99.66672 250,-7 -57.88382,35.33328 -195,34.66667 -250,7 C 212,166.33333 202.14945,61.03898 101,217 Z"/>
</g>
</svg>
